<mxfile host="app.diagrams.net" modified="2023-11-23T16:20:57.528Z" agent="Mozilla/5.0 (Windows NT 10.0; Win64; x64) AppleWebKit/537.36 (KHTML, like Gecko) Chrome/119.0.0.0 Safari/537.36" etag="mEGcvan__5HjW4na_LHg" version="22.1.3" type="device" pages="4">
  <diagram name="Sign up" id="Tzz9PXDUnGUrr2mMW838">
    <mxGraphModel dx="955" dy="522" grid="1" gridSize="10" guides="1" tooltips="1" connect="1" arrows="1" fold="1" page="1" pageScale="1" pageWidth="827" pageHeight="1169" math="0" shadow="0">
      <root>
        <mxCell id="0" />
        <mxCell id="1" parent="0" />
        <mxCell id="lNE3R671QEqZzRePpv7G-1" value="User" style="shape=umlLifeline;perimeter=lifelinePerimeter;whiteSpace=wrap;html=1;container=1;dropTarget=0;collapsible=0;recursiveResize=0;outlineConnect=0;portConstraint=eastwest;newEdgeStyle={&quot;edgeStyle&quot;:&quot;elbowEdgeStyle&quot;,&quot;elbow&quot;:&quot;vertical&quot;,&quot;curved&quot;:0,&quot;rounded&quot;:0};fontSize=14;" vertex="1" parent="1">
          <mxGeometry x="120" y="80" width="100" height="750" as="geometry" />
        </mxCell>
        <mxCell id="lNE3R671QEqZzRePpv7G-2" value="CKB platform" style="shape=umlLifeline;perimeter=lifelinePerimeter;whiteSpace=wrap;html=1;container=1;dropTarget=0;collapsible=0;recursiveResize=0;outlineConnect=0;portConstraint=eastwest;newEdgeStyle={&quot;edgeStyle&quot;:&quot;elbowEdgeStyle&quot;,&quot;elbow&quot;:&quot;vertical&quot;,&quot;curved&quot;:0,&quot;rounded&quot;:0};fontSize=14;" vertex="1" parent="1">
          <mxGeometry x="590" y="80" width="100" height="750" as="geometry" />
        </mxCell>
        <mxCell id="lNE3R671QEqZzRePpv7G-6" value="" style="html=1;points=[[0,0,0,0,5],[0,1,0,0,-5],[1,0,0,0,5],[1,1,0,0,-5]];perimeter=orthogonalPerimeter;outlineConnect=0;targetShapes=umlLifeline;portConstraint=eastwest;newEdgeStyle={&quot;curved&quot;:0,&quot;rounded&quot;:0};fontSize=14;" vertex="1" parent="lNE3R671QEqZzRePpv7G-2">
          <mxGeometry x="45" y="80" width="10" height="80" as="geometry" />
        </mxCell>
        <mxCell id="lNE3R671QEqZzRePpv7G-10" value="" style="html=1;points=[[0,0,0,0,5],[0,1,0,0,-5],[1,0,0,0,5],[1,1,0,0,-5]];perimeter=orthogonalPerimeter;outlineConnect=0;targetShapes=umlLifeline;portConstraint=eastwest;newEdgeStyle={&quot;curved&quot;:0,&quot;rounded&quot;:0};fontSize=14;" vertex="1" parent="lNE3R671QEqZzRePpv7G-2">
          <mxGeometry x="45" y="200" width="10" height="80" as="geometry" />
        </mxCell>
        <mxCell id="rbw9SaGvX5xycrt1Zv_B-1" value="" style="html=1;align=left;spacingLeft=2;endArrow=block;rounded=0;edgeStyle=orthogonalEdgeStyle;curved=0;rounded=0;fontSize=14;exitX=1;exitY=0;exitDx=0;exitDy=5;exitPerimeter=0;" edge="1" parent="lNE3R671QEqZzRePpv7G-2" source="lNE3R671QEqZzRePpv7G-10" target="lNE3R671QEqZzRePpv7G-10">
          <mxGeometry relative="1" as="geometry">
            <mxPoint x="60.00043478260875" y="205.04347826086962" as="sourcePoint" />
            <Array as="points">
              <mxPoint x="110" y="205" />
              <mxPoint x="110" y="255" />
            </Array>
            <mxPoint x="65.37" y="255.04347826086962" as="targetPoint" />
          </mxGeometry>
        </mxCell>
        <mxCell id="rbw9SaGvX5xycrt1Zv_B-2" value="4: check_username()" style="edgeLabel;html=1;align=center;verticalAlign=middle;resizable=0;points=[];fontSize=14;" vertex="1" connectable="0" parent="rbw9SaGvX5xycrt1Zv_B-1">
          <mxGeometry x="-0.039" y="2" relative="1" as="geometry">
            <mxPoint x="28" y="6" as="offset" />
          </mxGeometry>
        </mxCell>
        <mxCell id="lNE3R671QEqZzRePpv7G-7" value="1: request(signup_page)" style="html=1;verticalAlign=bottom;endArrow=block;curved=0;rounded=0;entryX=0;entryY=0;entryDx=0;entryDy=5;fontSize=14;" edge="1" target="lNE3R671QEqZzRePpv7G-6" parent="1" source="lNE3R671QEqZzRePpv7G-1">
          <mxGeometry x="-0.0024" relative="1" as="geometry">
            <mxPoint x="280" y="295" as="sourcePoint" />
            <mxPoint as="offset" />
          </mxGeometry>
        </mxCell>
        <mxCell id="lNE3R671QEqZzRePpv7G-8" value="2: show(signup_page)" style="html=1;verticalAlign=bottom;endArrow=open;dashed=1;endSize=8;curved=0;rounded=0;exitX=0;exitY=1;exitDx=0;exitDy=-5;fontSize=14;" edge="1" parent="1">
          <mxGeometry relative="1" as="geometry">
            <mxPoint x="169.32352941176464" y="232" as="targetPoint" />
            <mxPoint x="635" y="232" as="sourcePoint" />
          </mxGeometry>
        </mxCell>
        <mxCell id="lNE3R671QEqZzRePpv7G-11" value="3: signup(name, surname, username, e-mail, role)" style="html=1;verticalAlign=bottom;endArrow=block;curved=0;rounded=0;entryX=0;entryY=0;entryDx=0;entryDy=5;fontSize=14;" edge="1" target="lNE3R671QEqZzRePpv7G-10" parent="1" source="lNE3R671QEqZzRePpv7G-1">
          <mxGeometry relative="1" as="geometry">
            <mxPoint x="455" y="285" as="sourcePoint" />
          </mxGeometry>
        </mxCell>
        <mxCell id="rbw9SaGvX5xycrt1Zv_B-3" value="&lt;font style=&quot;font-size: 14px;&quot;&gt;6: send_e-mail()&lt;/font&gt;" style="html=1;verticalAlign=bottom;endArrow=open;dashed=1;endSize=8;curved=0;rounded=0;exitX=0;exitY=1;exitDx=0;exitDy=-5;fontSize=14;" edge="1" parent="1">
          <mxGeometry relative="1" as="geometry">
            <mxPoint x="170" y="584" as="targetPoint" />
            <mxPoint x="635" y="584" as="sourcePoint" />
          </mxGeometry>
        </mxCell>
        <mxCell id="xYdsd-wHPHesKXTW5W4z-1" value="&lt;b style=&quot;font-size: 14px;&quot;&gt;alt&lt;/b&gt;: username already taken" style="shape=umlFrame;whiteSpace=wrap;html=1;pointerEvents=0;width=196;height=30;fontSize=14;" vertex="1" parent="1">
          <mxGeometry x="120" y="370" width="560" height="400" as="geometry" />
        </mxCell>
        <mxCell id="xYdsd-wHPHesKXTW5W4z-2" value="5: show_message(&quot;sign up failed&quot;)" style="html=1;verticalAlign=bottom;endArrow=open;dashed=1;endSize=8;curved=0;rounded=0;exitX=0;exitY=1;exitDx=0;exitDy=-5;fontSize=14;" edge="1" parent="1">
          <mxGeometry relative="1" as="geometry">
            <mxPoint x="170" y="456" as="targetPoint" />
            <mxPoint x="635" y="456" as="sourcePoint" />
          </mxGeometry>
        </mxCell>
        <mxCell id="xmiP2gEMONpXS5Xv0bzZ-2" value="" style="endArrow=classic;html=1;rounded=0;fontSize=14;" edge="1" parent="1">
          <mxGeometry width="50" height="50" relative="1" as="geometry">
            <mxPoint x="169.5" y="640" as="sourcePoint" />
            <mxPoint x="639.5" y="640" as="targetPoint" />
          </mxGeometry>
        </mxCell>
        <mxCell id="xmiP2gEMONpXS5Xv0bzZ-4" value="&lt;font style=&quot;font-size: 14px;&quot;&gt;7: clicks on link&lt;/font&gt;" style="edgeLabel;html=1;align=center;verticalAlign=middle;resizable=0;points=[];fontSize=14;" vertex="1" connectable="0" parent="xmiP2gEMONpXS5Xv0bzZ-2">
          <mxGeometry x="-0.0166" y="1" relative="1" as="geometry">
            <mxPoint y="-9" as="offset" />
          </mxGeometry>
        </mxCell>
        <mxCell id="xmiP2gEMONpXS5Xv0bzZ-5" value="8: show_message(&quot;account created&quot;)" style="html=1;verticalAlign=bottom;endArrow=open;dashed=1;endSize=8;curved=0;rounded=0;exitX=0;exitY=1;exitDx=0;exitDy=-5;fontSize=14;" edge="1" parent="1">
          <mxGeometry relative="1" as="geometry">
            <mxPoint x="170" y="700" as="targetPoint" />
            <mxPoint x="635" y="700" as="sourcePoint" />
          </mxGeometry>
        </mxCell>
        <mxCell id="xmiP2gEMONpXS5Xv0bzZ-6" value="" style="endArrow=none;html=1;rounded=0;fontSize=14;" edge="1" parent="1">
          <mxGeometry width="50" height="50" relative="1" as="geometry">
            <mxPoint x="119" y="519" as="sourcePoint" />
            <mxPoint x="679" y="519" as="targetPoint" />
          </mxGeometry>
        </mxCell>
      </root>
    </mxGraphModel>
  </diagram>
  <diagram id="YGfrVCY0MwlsS2GeSzkb" name="Log in">
    <mxGraphModel dx="724" dy="396" grid="1" gridSize="10" guides="1" tooltips="1" connect="1" arrows="1" fold="1" page="1" pageScale="1" pageWidth="827" pageHeight="1169" math="0" shadow="0">
      <root>
        <mxCell id="0" />
        <mxCell id="1" parent="0" />
        <mxCell id="xXrbo8NS6bV9Oz6nNZ06-1" value="User" style="shape=umlLifeline;perimeter=lifelinePerimeter;whiteSpace=wrap;html=1;container=1;dropTarget=0;collapsible=0;recursiveResize=0;outlineConnect=0;portConstraint=eastwest;newEdgeStyle={&quot;edgeStyle&quot;:&quot;elbowEdgeStyle&quot;,&quot;elbow&quot;:&quot;vertical&quot;,&quot;curved&quot;:0,&quot;rounded&quot;:0};fontSize=14;" vertex="1" parent="1">
          <mxGeometry x="190" y="80" width="100" height="530" as="geometry" />
        </mxCell>
        <mxCell id="xXrbo8NS6bV9Oz6nNZ06-2" value="CKB platform" style="shape=umlLifeline;perimeter=lifelinePerimeter;whiteSpace=wrap;html=1;container=1;dropTarget=0;collapsible=0;recursiveResize=0;outlineConnect=0;portConstraint=eastwest;newEdgeStyle={&quot;edgeStyle&quot;:&quot;elbowEdgeStyle&quot;,&quot;elbow&quot;:&quot;vertical&quot;,&quot;curved&quot;:0,&quot;rounded&quot;:0};fontSize=14;" vertex="1" parent="1">
          <mxGeometry x="550" y="80" width="100" height="530" as="geometry" />
        </mxCell>
        <mxCell id="xXrbo8NS6bV9Oz6nNZ06-3" value="" style="html=1;points=[[0,0,0,0,5],[0,1,0,0,-5],[1,0,0,0,5],[1,1,0,0,-5]];perimeter=orthogonalPerimeter;outlineConnect=0;targetShapes=umlLifeline;portConstraint=eastwest;newEdgeStyle={&quot;curved&quot;:0,&quot;rounded&quot;:0};fontSize=14;" vertex="1" parent="xXrbo8NS6bV9Oz6nNZ06-2">
          <mxGeometry x="45" y="80" width="10" height="80" as="geometry" />
        </mxCell>
        <mxCell id="xXrbo8NS6bV9Oz6nNZ06-9" value="" style="html=1;points=[[0,0,0,0,5],[0,1,0,0,-5],[1,0,0,0,5],[1,1,0,0,-5]];perimeter=orthogonalPerimeter;outlineConnect=0;targetShapes=umlLifeline;portConstraint=eastwest;newEdgeStyle={&quot;curved&quot;:0,&quot;rounded&quot;:0};fontSize=14;" vertex="1" parent="xXrbo8NS6bV9Oz6nNZ06-2">
          <mxGeometry x="45" y="230" width="10" height="40" as="geometry" />
        </mxCell>
        <mxCell id="xXrbo8NS6bV9Oz6nNZ06-10" value="" style="html=1;align=left;spacingLeft=2;endArrow=block;rounded=0;edgeStyle=orthogonalEdgeStyle;curved=0;rounded=0;fontSize=14;" edge="1" parent="xXrbo8NS6bV9Oz6nNZ06-2">
          <mxGeometry relative="1" as="geometry">
            <mxPoint x="49.630434782608745" y="205.04347826086962" as="sourcePoint" />
            <Array as="points">
              <mxPoint x="100" y="205" />
              <mxPoint x="100" y="255" />
            </Array>
            <mxPoint x="55" y="255.04347826086962" as="targetPoint" />
          </mxGeometry>
        </mxCell>
        <mxCell id="xXrbo8NS6bV9Oz6nNZ06-12" value="check_credentials()" style="edgeLabel;html=1;align=center;verticalAlign=middle;resizable=0;points=[];fontSize=14;" vertex="1" connectable="0" parent="xXrbo8NS6bV9Oz6nNZ06-10">
          <mxGeometry x="-0.039" y="2" relative="1" as="geometry">
            <mxPoint x="28" y="6" as="offset" />
          </mxGeometry>
        </mxCell>
        <mxCell id="xXrbo8NS6bV9Oz6nNZ06-6" value="1: request(login_page)" style="html=1;verticalAlign=bottom;endArrow=block;curved=0;rounded=0;entryX=0;entryY=0;entryDx=0;entryDy=5;fontSize=14;" edge="1" parent="1" source="xXrbo8NS6bV9Oz6nNZ06-1" target="xXrbo8NS6bV9Oz6nNZ06-3">
          <mxGeometry x="-0.0024" relative="1" as="geometry">
            <mxPoint x="350" y="295" as="sourcePoint" />
            <mxPoint as="offset" />
          </mxGeometry>
        </mxCell>
        <mxCell id="xXrbo8NS6bV9Oz6nNZ06-7" value="2: show(login_page)" style="html=1;verticalAlign=bottom;endArrow=open;dashed=1;endSize=8;curved=0;rounded=0;exitX=0;exitY=1;exitDx=0;exitDy=-5;fontSize=14;" edge="1" parent="1" source="xXrbo8NS6bV9Oz6nNZ06-3" target="xXrbo8NS6bV9Oz6nNZ06-1">
          <mxGeometry relative="1" as="geometry">
            <mxPoint x="350" y="365" as="targetPoint" />
          </mxGeometry>
        </mxCell>
        <mxCell id="xXrbo8NS6bV9Oz6nNZ06-8" value="3: login(username, password)" style="html=1;verticalAlign=bottom;endArrow=block;curved=0;rounded=0;entryX=0;entryY=0;entryDx=0;entryDy=5;fontSize=14;" edge="1" parent="1" source="xXrbo8NS6bV9Oz6nNZ06-1">
          <mxGeometry relative="1" as="geometry">
            <mxPoint x="525" y="285" as="sourcePoint" />
            <mxPoint x="595" y="285" as="targetPoint" />
          </mxGeometry>
        </mxCell>
        <mxCell id="xXrbo8NS6bV9Oz6nNZ06-14" value="4: show_message(&quot;login failed&quot;)" style="html=1;verticalAlign=bottom;endArrow=open;dashed=1;endSize=8;curved=0;rounded=0;exitX=0;exitY=1;exitDx=0;exitDy=-5;fontSize=14;" edge="1" parent="1">
          <mxGeometry relative="1" as="geometry">
            <mxPoint x="242.5" y="460" as="targetPoint" />
            <mxPoint x="597.5" y="460" as="sourcePoint" />
          </mxGeometry>
        </mxCell>
        <mxCell id="xXrbo8NS6bV9Oz6nNZ06-23" value="[username and/or &lt;br&gt;password incorrect]" style="text;html=1;align=center;verticalAlign=middle;resizable=0;points=[];autosize=1;strokeColor=none;fillColor=none;" vertex="1" parent="1">
          <mxGeometry x="250" y="400" width="130" height="40" as="geometry" />
        </mxCell>
        <mxCell id="xXrbo8NS6bV9Oz6nNZ06-13" value="&lt;b style=&quot;font-size: 14px;&quot;&gt;alt&lt;/b&gt;: invalid credentials" style="shape=umlFrame;whiteSpace=wrap;html=1;pointerEvents=0;width=170;height=30;fontSize=14;" vertex="1" parent="1">
          <mxGeometry x="190" y="360" width="460" height="230" as="geometry" />
        </mxCell>
        <mxCell id="xXrbo8NS6bV9Oz6nNZ06-16" value="" style="endArrow=none;html=1;rounded=0;entryX=1;entryY=0.57;entryDx=0;entryDy=0;entryPerimeter=0;" edge="1" parent="1">
          <mxGeometry width="50" height="50" relative="1" as="geometry">
            <mxPoint x="190" y="490.33190476190475" as="sourcePoint" />
            <mxPoint x="650" y="490.00333333333333" as="targetPoint" />
            <Array as="points">
              <mxPoint x="420" y="490.00333333333333" />
            </Array>
          </mxGeometry>
        </mxCell>
        <mxCell id="xXrbo8NS6bV9Oz6nNZ06-20" value="5: show_message(&quot;login successful&quot;)" style="html=1;verticalAlign=bottom;endArrow=open;dashed=1;endSize=8;curved=0;rounded=0;exitX=0;exitY=1;exitDx=0;exitDy=-5;fontSize=14;" edge="1" parent="1">
          <mxGeometry relative="1" as="geometry">
            <mxPoint x="242.5" y="550" as="targetPoint" />
            <mxPoint x="597.5" y="550" as="sourcePoint" />
          </mxGeometry>
        </mxCell>
      </root>
    </mxGraphModel>
  </diagram>
  <diagram id="ICJhqUH0t8CDxZnNd0Hn" name="Create a tournament">
    <mxGraphModel dx="955" dy="522" grid="1" gridSize="10" guides="1" tooltips="1" connect="1" arrows="1" fold="1" page="1" pageScale="1" pageWidth="827" pageHeight="1169" math="0" shadow="0">
      <root>
        <mxCell id="0" />
        <mxCell id="1" parent="0" />
        <mxCell id="KDrG3ivFhvAEy1ckTahE-1" value="CKB platform" style="shape=umlLifeline;perimeter=lifelinePerimeter;whiteSpace=wrap;html=1;container=1;dropTarget=0;collapsible=0;recursiveResize=0;outlineConnect=0;portConstraint=eastwest;newEdgeStyle={&quot;edgeStyle&quot;:&quot;elbowEdgeStyle&quot;,&quot;elbow&quot;:&quot;vertical&quot;,&quot;curved&quot;:0,&quot;rounded&quot;:0};fontSize=14;" vertex="1" parent="1">
          <mxGeometry x="590" y="80" width="100" height="410" as="geometry" />
        </mxCell>
        <mxCell id="dV2lvsRjr3svhoYy53k7-2" value="" style="html=1;points=[[0,0,0,0,5],[0,1,0,0,-5],[1,0,0,0,5],[1,1,0,0,-5]];perimeter=orthogonalPerimeter;outlineConnect=0;targetShapes=umlLifeline;portConstraint=eastwest;newEdgeStyle={&quot;curved&quot;:0,&quot;rounded&quot;:0};fontSize=14;" vertex="1" parent="KDrG3ivFhvAEy1ckTahE-1">
          <mxGeometry x="45" y="80" width="10" height="80" as="geometry" />
        </mxCell>
        <mxCell id="dV2lvsRjr3svhoYy53k7-1" value="User" style="shape=umlLifeline;perimeter=lifelinePerimeter;whiteSpace=wrap;html=1;container=1;dropTarget=0;collapsible=0;recursiveResize=0;outlineConnect=0;portConstraint=eastwest;newEdgeStyle={&quot;edgeStyle&quot;:&quot;elbowEdgeStyle&quot;,&quot;elbow&quot;:&quot;vertical&quot;,&quot;curved&quot;:0,&quot;rounded&quot;:0};fontSize=14;" vertex="1" parent="1">
          <mxGeometry x="120" y="80" width="100" height="410" as="geometry" />
        </mxCell>
        <mxCell id="dV2lvsRjr3svhoYy53k7-3" value="1: create_tournament(title, sub_deadline, badges)" style="html=1;verticalAlign=bottom;endArrow=block;curved=0;rounded=0;entryX=0;entryY=0;entryDx=0;entryDy=5;fontSize=14;" edge="1" target="dV2lvsRjr3svhoYy53k7-2" parent="1" source="dV2lvsRjr3svhoYy53k7-1">
          <mxGeometry relative="1" as="geometry">
            <mxPoint x="310" y="215" as="sourcePoint" />
          </mxGeometry>
        </mxCell>
        <mxCell id="dV2lvsRjr3svhoYy53k7-4" value="4: show_message(&quot;tournament created&quot;)" style="html=1;verticalAlign=bottom;endArrow=open;dashed=1;endSize=8;curved=0;rounded=0;exitX=0;exitY=1;exitDx=0;exitDy=-5;fontSize=14;" edge="1" parent="1">
          <mxGeometry relative="1" as="geometry">
            <mxPoint x="170.33666666666673" y="420.00000000000006" as="targetPoint" />
            <mxPoint x="635.67" y="420.00000000000006" as="sourcePoint" />
          </mxGeometry>
        </mxCell>
        <mxCell id="5t5c0uov8xxtRN_PQzIy-1" value="&lt;b style=&quot;font-size: 14px;&quot;&gt;alt&lt;/b&gt;: erroneous infomation" style="shape=umlFrame;whiteSpace=wrap;html=1;pointerEvents=0;width=182;height=30;fontSize=14;" vertex="1" parent="1">
          <mxGeometry x="138" y="260" width="530" height="200" as="geometry" />
        </mxCell>
        <mxCell id="g48Yn_m7o0lA722vfoR6-1" value="" style="html=1;align=left;spacingLeft=2;endArrow=block;rounded=0;edgeStyle=orthogonalEdgeStyle;curved=0;rounded=0;fontSize=14;" edge="1" parent="1">
          <mxGeometry relative="1" as="geometry">
            <mxPoint x="645.0004347826087" y="165.04347826086962" as="sourcePoint" />
            <Array as="points">
              <mxPoint x="695.37" y="165" />
              <mxPoint x="695.37" y="215" />
            </Array>
            <mxPoint x="650.37" y="215.04347826086962" as="targetPoint" />
          </mxGeometry>
        </mxCell>
        <mxCell id="g48Yn_m7o0lA722vfoR6-2" value="2: check_information()" style="edgeLabel;html=1;align=center;verticalAlign=middle;resizable=0;points=[];fontSize=14;" vertex="1" connectable="0" parent="g48Yn_m7o0lA722vfoR6-1">
          <mxGeometry x="-0.039" y="2" relative="1" as="geometry">
            <mxPoint x="28" y="6" as="offset" />
          </mxGeometry>
        </mxCell>
        <mxCell id="g48Yn_m7o0lA722vfoR6-3" value="3: show_message(&quot;failed creation&quot;)" style="html=1;verticalAlign=bottom;endArrow=open;dashed=1;endSize=8;curved=0;rounded=0;exitX=0;exitY=1;exitDx=0;exitDy=-5;fontSize=14;" edge="1" parent="1">
          <mxGeometry relative="1" as="geometry">
            <mxPoint x="170.33666666666673" y="330" as="targetPoint" />
            <mxPoint x="635.67" y="330" as="sourcePoint" />
          </mxGeometry>
        </mxCell>
        <mxCell id="aOpoYuYJx2_HQNIXeaP4-1" value="" style="endArrow=none;html=1;rounded=0;entryX=1;entryY=0.57;entryDx=0;entryDy=0;entryPerimeter=0;exitX=-0.003;exitY=0.572;exitDx=0;exitDy=0;exitPerimeter=0;fontSize=14;" edge="1" parent="1" source="5t5c0uov8xxtRN_PQzIy-1">
          <mxGeometry width="50" height="50" relative="1" as="geometry">
            <mxPoint x="208" y="374.97190476190474" as="sourcePoint" />
            <mxPoint x="668" y="374.6433333333333" as="targetPoint" />
            <Array as="points">
              <mxPoint x="438" y="374.6433333333333" />
            </Array>
          </mxGeometry>
        </mxCell>
      </root>
    </mxGraphModel>
  </diagram>
  <diagram id="ZhwEpiAQB03pTTomGMK1" name="Template">
    <mxGraphModel dx="1050" dy="574" grid="1" gridSize="10" guides="1" tooltips="1" connect="1" arrows="1" fold="1" page="1" pageScale="1" pageWidth="827" pageHeight="1169" math="0" shadow="0">
      <root>
        <mxCell id="0" />
        <mxCell id="1" parent="0" />
        <mxCell id="g5XT4XBp08OD4Hti3WGV-1" value="CKB platform" style="shape=umlLifeline;perimeter=lifelinePerimeter;whiteSpace=wrap;html=1;container=1;dropTarget=0;collapsible=0;recursiveResize=0;outlineConnect=0;portConstraint=eastwest;newEdgeStyle={&quot;edgeStyle&quot;:&quot;elbowEdgeStyle&quot;,&quot;elbow&quot;:&quot;vertical&quot;,&quot;curved&quot;:0,&quot;rounded&quot;:0};fontSize=14;" vertex="1" parent="1">
          <mxGeometry x="590" y="80" width="100" height="380" as="geometry" />
        </mxCell>
        <mxCell id="HLYF5hhSdvJY1I8LwYU--1" value="User" style="shape=umlLifeline;perimeter=lifelinePerimeter;whiteSpace=wrap;html=1;container=1;dropTarget=0;collapsible=0;recursiveResize=0;outlineConnect=0;portConstraint=eastwest;newEdgeStyle={&quot;edgeStyle&quot;:&quot;elbowEdgeStyle&quot;,&quot;elbow&quot;:&quot;vertical&quot;,&quot;curved&quot;:0,&quot;rounded&quot;:0};fontSize=14;" vertex="1" parent="1">
          <mxGeometry x="120" y="80" width="100" height="360" as="geometry" />
        </mxCell>
      </root>
    </mxGraphModel>
  </diagram>
</mxfile>
